<?xml version="1.0" encoding="UTF-8" standalone="no"?>
<!-- Created with Inkscape (http://www.inkscape.org/) -->

<svg
   xmlns:dc="http://purl.org/dc/elements/1.1/"
   xmlns:cc="http://creativecommons.org/ns#"
   xmlns:rdf="http://www.w3.org/1999/02/22-rdf-syntax-ns#"
   xmlns:svg="http://www.w3.org/2000/svg"
   xmlns="http://www.w3.org/2000/svg"
   xmlns:sodipodi="http://sodipodi.sourceforge.net/DTD/sodipodi-0.dtd"
   xmlns:inkscape="http://www.inkscape.org/namespaces/inkscape"
   width="3640"
   height="1520"
   id="svg2"
   version="1.1"
   inkscape:version="0.92.2 5c3e80d, 2017-08-06"
   sodipodi:docname="overview.svg">
  <defs
     id="defs4">
    <marker
       inkscape:stockid="Arrow1Lend"
       orient="auto"
       refY="0"
       refX="0"
       id="Arrow1Lend"
       style="overflow:visible">
      <path
         id="path5186"
         d="M 0,0 5,-5 -12.5,0 5,5 0,0 z"
         style="fill-rule:evenodd;stroke:#000000;stroke-width:1pt"
         transform="matrix(-0.8,0,0,-0.8,-10,0)"
         inkscape:connector-curvature="0" />
    </marker>
    <marker
       inkscape:stockid="Arrow2Lend"
       orient="auto"
       refY="0"
       refX="0"
       id="Arrow2Lend"
       style="overflow:visible">
      <path
         id="path5204"
         style="fill-rule:evenodd;stroke-width:0.625;stroke-linejoin:round"
         d="M 8.7185878,4.0337352 -2.2072895,0.01601326 8.7185884,-4.0017078 c -1.7454984,2.3720609 -1.7354408,5.6174519 -6e-7,8.035443 z"
         transform="matrix(-1.1,0,0,-1.1,-1.1,0)"
         inkscape:connector-curvature="0" />
    </marker>
    <marker
       inkscape:stockid="Arrow2Lstart"
       orient="auto"
       refY="0"
       refX="0"
       id="Arrow2Lstart"
       style="overflow:visible">
      <path
         id="path5201"
         style="fill-rule:evenodd;stroke-width:0.625;stroke-linejoin:round"
         d="M 8.7185878,4.0337352 -2.2072895,0.01601326 8.7185884,-4.0017078 c -1.7454984,2.3720609 -1.7354408,5.6174519 -6e-7,8.035443 z"
         transform="matrix(1.1,0,0,1.1,1.1,0)"
         inkscape:connector-curvature="0" />
    </marker>
  </defs>
  <sodipodi:namedview
     id="base"
     pagecolor="#ffffff"
     bordercolor="#666666"
     borderopacity="1.0"
     inkscape:pageopacity="0.0"
     inkscape:pageshadow="2"
     inkscape:zoom="0.25000001"
     inkscape:cx="1691.5328"
     inkscape:cy="886.76884"
     inkscape:document-units="px"
     inkscape:current-layer="layer1"
     showgrid="false"
     inkscape:window-width="1640"
     inkscape:window-height="863"
     inkscape:window-x="174"
     inkscape:window-y="121"
     inkscape:window-maximized="0"
     fit-margin-top="0"
     fit-margin-left="0"
     fit-margin-right="0"
     fit-margin-bottom="0"
     inkscape:snap-global="false"
     inkscape:snap-to-guides="false"
     inkscape:snap-grids="false"
     inkscape:snap-others="false"
     inkscape:object-nodes="false"
     inkscape:snap-nodes="false">
    <inkscape:grid
       type="xygrid"
       id="grid3192"
       empspacing="5"
       visible="true"
       enabled="true"
       snapvisiblegridlinesonly="true"
       originx="20"
       originy="20.000028"
       spacingx="1"
       spacingy="1" />
  </sodipodi:namedview>
  <metadata
     id="metadata7">
    <rdf:RDF>
      <cc:Work
         rdf:about="">
        <dc:format>image/svg+xml</dc:format>
        <dc:type
           rdf:resource="http://purl.org/dc/dcmitype/StillImage" />
        <dc:title></dc:title>
      </cc:Work>
    </rdf:RDF>
  </metadata>
  <g
     inkscape:label="Ebene 1"
     inkscape:groupmode="layer"
     id="layer1"
     transform="translate(81.761993,1353.6136)">
    <path
       sodipodi:nodetypes="cc"
       inkscape:connector-curvature="0"
       id="path6789"
       d="m 2495.014,-948.51407 c 229.5153,74.30255 380.4562,263.12305 414.1782,396.80732"
       style="fill:none;stroke:#e8e8e8;stroke-width:90;stroke-linecap:square;stroke-linejoin:miter;stroke-miterlimit:0.01;stroke-dasharray:none;stroke-opacity:1;marker-start:none;marker-end:none" />
    <path
       inkscape:transform-center-y="17.380159"
       inkscape:transform-center-x="11.350342"
       transform="matrix(0.47511515,0.58595223,-0.58595223,0.47511515,3469.4609,-1448.9986)"
       d="m 623.33852,1414.683 -127.49145,6.112 -127.49144,6.1119 58.4526,-113.4668 58.4526,-113.4668 69.03885,107.3549 z"
       inkscape:randomized="0"
       inkscape:rounded="0"
       inkscape:flatsided="false"
       sodipodi:arg2="1.5228928"
       sodipodi:arg1="0.47569522"
       sodipodi:r2="73.691757"
       sodipodi:r1="147.38351"
       sodipodi:cy="1347.1877"
       sodipodi:cx="492.31833"
       sodipodi:sides="3"
       id="path6795"
       style="fill:#e8e8e8;fill-opacity:1;stroke:none"
       sodipodi:type="star" />
    <path
       sodipodi:nodetypes="cc"
       inkscape:connector-curvature="0"
       id="path6785"
       d="m 431.70032,-634.20645 c 41.88787,-233.6873 163.65917,-306.16546 445.84329,-378.62855"
       style="fill:none;stroke:#e8e8e8;stroke-width:90;stroke-linecap:square;stroke-linejoin:miter;stroke-miterlimit:0.01;stroke-dasharray:none;stroke-opacity:1;marker-start:none;marker-end:none" />
    <path
       style="fill:none;stroke:#e8e8e8;stroke-width:90;stroke-linecap:square;stroke-linejoin:miter;stroke-miterlimit:0.01;stroke-dasharray:none;stroke-opacity:1;marker-start:none;marker-end:none"
       d="M 993.21452,-285.50219 C 1445.4828,-390.57114 1562.9986,-551.94003 1582.6719,-843.32902"
       id="path5177"
       inkscape:connector-curvature="0"
       sodipodi:nodetypes="cc" />
    <g
       id="g5167"
       transform="translate(1008,-2.6047196)">
      <g
         transform="matrix(0.23314644,0,0,-0.23314644,1659.7558,-136.27662)"
         id="g3441">
        <path
           id="path3443"
           style="fill:#362701;fill-opacity:1;fill-rule:nonzero;stroke:none"
           d="m 1308.73,601.652 c -47.88,0 -83.54,-23.511 -83.54,-80.093 0,-42.633 23.5,-72.227 80.96,-72.227 48.7,0 81.78,28.695 81.78,73.988 0,51.328 -29.6,78.332 -79.2,78.332 z M 1213,202.133 c -11.33,-13.906 -22.62,-28.68 -22.62,-46.117 0,-34.786 44.36,-45.254 105.3,-45.254 50.48,0 119.24,3.535 119.24,50.468 0,27.895 -33.08,29.622 -74.88,32.243 z m 257.61,396.89 c 15.64,-20.023 32.2,-47.878 32.2,-87.91 0,-96.601 -75.72,-153.164 -185.35,-153.164 -27.88,0 -53.12,3.473 -68.77,7.817 l -28.73,-46.118 85.28,-5.21 c 150.58,-9.594 239.32,-13.954 239.32,-129.661 0,-100.109 -87.88,-156.652 -239.32,-156.652 -157.52,0 -217.57,40.0391 -217.57,108.781 0,39.18 17.41,60.02 47.87,88.782 -28.73,12.144 -38.29,33.89 -38.29,57.398 0,19.16 9.56,36.562 25.25,53.109 15.66,16.52 33.06,33.078 53.95,52.219 -42.64,20.883 -74.85,66.141 -74.85,130.555 0,100.074 66.15,168.804 199.28,168.804 37.43,0 60.07,-3.445 80.09,-8.699 h 169.72 v -73.957 l -80.08,-6.094"
           inkscape:connector-curvature="0" />
        <path
           id="path3445"
           style="fill:#362701;fill-opacity:1;fill-rule:nonzero;stroke:none"
           d="m 1703.8,757.168 c -49.62,0 -78.33,28.746 -78.33,78.371 0,49.563 28.71,76.563 78.33,76.563 50.48,0 79.2,-27 79.2,-76.563 0,-49.625 -28.72,-78.371 -79.2,-78.371 z M 1591.51,234.156 v 68.719 l 44.4,6.074 c 12.19,1.766 13.92,4.356 13.92,17.442 v 255.867 c 0,9.555 -2.6,15.672 -11.33,18.262 l -46.99,16.55 9.57,70.469 h 180.17 V 326.391 c 0,-13.95 0.84,-15.676 13.93,-17.442 l 44.39,-6.074 v -68.719 h -248.06"
           inkscape:connector-curvature="0" />
        <path
           id="path3447"
           style="fill:#362701;fill-opacity:1;fill-rule:nonzero;stroke:none"
           d="m 2183.73,267.895 c -37.44,-18.254 -92.26,-34.793 -141.89,-34.793 -103.56,0 -142.71,41.734 -142.71,140.121 v 228.004 c 0,5.211 0,8.707 -6.99,8.707 h -60.91 v 77.453 c 76.61,8.726 107.05,47.027 116.62,141.886 h 82.69 V 705.648 c 0,-6.07 0,-8.699 6.97,-8.699 h 122.7 V 609.934 H 2030.54 V 401.945 c 0,-51.355 12.2,-71.355 59.17,-71.355 24.4,0 49.61,6.074 70.5,13.914 l 23.52,-76.609"
           inkscape:connector-curvature="0" />
        <path
           id="path3449"
           style="fill:#f03c2e;fill-opacity:1;fill-rule:nonzero;stroke:none"
           d="m 894.215,496.285 -397.938,397.91 c -22.898,22.918 -60.066,22.918 -82.996,0 L 330.652,811.559 435.469,706.738 c 24.367,8.227 52.297,2.711 71.711,-16.707 19.515,-19.539 24.992,-47.707 16.558,-72.156 l 101.024,-101.02 c 24.441,8.422 52.64,2.981 72.156,-16.57 27.285,-27.277 27.285,-71.476 0,-98.762 -27.289,-27.293 -71.488,-27.293 -98.789,0 -20.516,20.532 -25.59,50.676 -15.199,75.954 l -94.215,94.218 -0.008,-247.929 c 6.652,-3.293 12.93,-7.688 18.473,-13.207 27.277,-27.274 27.277,-71.465 0,-98.782 -27.285,-27.273 -71.504,-27.273 -98.762,0 -27.281,27.317 -27.281,71.508 0,98.782 6.742,6.73 14.543,11.824 22.867,15.238 v 250.23 c -8.324,3.403 -16.113,8.461 -22.867,15.239 -20.664,20.648 -25.641,50.976 -15.043,76.351 L 290.051,770.961 17.1992,498.125 c -22.92576,-22.937 -22.92576,-60.105 0,-83.027 L 415.133,17.1875 c 22.91,-22.91797 60.066,-22.91797 83.008,0 L 894.215,413.254 c 22.918,22.93 22.918,60.109 0,83.031"
           inkscape:connector-curvature="0" />
      </g>
      <text
         xml:space="preserve"
         style="font-style:normal;font-variant:normal;font-weight:normal;font-stretch:normal;line-height:0%;font-family:Kefa;-inkscape-font-specification:Kefa;text-align:center;letter-spacing:0px;word-spacing:0px;writing-mode:lr-tb;text-anchor:middle;fill:#000000;fill-opacity:1;stroke:none"
         x="1914.2858"
         y="-33.352177"
         id="text4922"><tspan
           id="tspan4930"
           sodipodi:role="line"
           x="1914.2858"
           y="-33.352177"
           style="font-size:72px;line-height:1.25">Repository with Kubernetes</tspan><tspan
           id="tspan4934"
           sodipodi:role="line"
           x="1914.2858"
           y="56.647823"
           style="font-size:72px;line-height:1.25">resource configuration files</tspan></text>
    </g>
    <text
       xml:space="preserve"
       style="font-style:normal;font-variant:normal;font-weight:normal;font-stretch:normal;line-height:0%;font-family:Kefa;-inkscape-font-specification:Kefa;text-align:center;letter-spacing:0px;word-spacing:0px;writing-mode:lr-tb;text-anchor:middle;fill:#004000;fill-opacity:1;stroke:none"
       x="2819.4541"
       y="-770.28912"
       id="text5005"><tspan
         sodipodi:role="line"
         x="2819.4541"
         y="-770.28912"
         id="tspan5039"
         style="font-size:72px;line-height:1.25">Update repository based</tspan><tspan
         sodipodi:role="line"
         x="2819.4541"
         y="-680.28912"
         style="font-size:72px;line-height:1.25"
         id="tspan13945">on workflow inputs</tspan></text>
    <path
       sodipodi:type="star"
       style="fill:#e8e8e8;fill-opacity:1;stroke:none"
       id="path6752"
       sodipodi:sides="3"
       sodipodi:cx="492.31833"
       sodipodi:cy="1347.1877"
       sodipodi:r1="147.38351"
       sodipodi:r2="73.691757"
       sodipodi:arg1="0.47569522"
       sodipodi:arg2="1.5228928"
       inkscape:flatsided="false"
       inkscape:rounded="0"
       inkscape:randomized="0"
       d="m 623.33852,1414.683 -127.49145,6.112 -127.49144,6.1119 58.4526,-113.4668 58.4526,-113.4668 69.03885,107.3549 z"
       transform="matrix(-0.16669535,-0.73572215,0.73572215,-0.16669535,16.488446,322.42508)"
       inkscape:transform-center-x="13.908647"
       inkscape:transform-center-y="-14.866143" />
    <path
       inkscape:transform-center-y="14.920995"
       inkscape:transform-center-x="-13.853506"
       transform="matrix(0.16744837,0.73555113,-0.73555113,0.16744837,1838.642,-1619.0546)"
       d="m 623.33852,1414.683 -127.49145,6.112 -127.49144,6.1119 58.4526,-113.4668 58.4526,-113.4668 69.03885,107.3549 z"
       inkscape:randomized="0"
       inkscape:rounded="0"
       inkscape:flatsided="false"
       sodipodi:arg2="1.5228928"
       sodipodi:arg1="0.47569522"
       sodipodi:r2="73.691757"
       sodipodi:r1="147.38351"
       sodipodi:cy="1347.1877"
       sodipodi:cx="492.31833"
       sodipodi:sides="3"
       id="path6791"
       style="fill:#e8e8e8;fill-opacity:1;stroke:none"
       sodipodi:type="star" />
    <path
       style="fill:none;stroke:#f6f8fa;stroke-width:20;stroke-linecap:butt;stroke-linejoin:miter;stroke-miterlimit:4;stroke-opacity:1;stroke-dasharray:none"
       d="M 0,-4.1384277 0,1475.8616 l 3600,0 0,-1480.0000277 z"
       id="path3194"
       inkscape:connector-curvature="0"
       transform="translate(-61.761993,-1329.4752)"
       sodipodi:nodetypes="ccccc" />
    <g
       id="g13848"
       transform="translate(-525.69069,759.99997)">
      <circle
         r="121.29084"
         cy="-408.50772"
         cx="2517.0437"
         style="fill:#a70600;fill-opacity:1;stroke:none;stroke-width:0.60862786"
         id="path6899"
         transform="rotate(-37.636839)" />
      <text
         id="text6911"
         y="-1814.8491"
         x="2410.8831"
         style="font-style:normal;font-variant:normal;font-weight:bold;font-stretch:normal;line-height:0%;font-family:Kefa;-inkscape-font-specification:'Kefa Bold';text-align:center;letter-spacing:0px;word-spacing:0px;writing-mode:lr-tb;text-anchor:middle;fill:#a70600;fill-opacity:1;stroke:none"
         xml:space="preserve"><tspan
           style="font-size:190px;line-height:1.25;fill:#a70600;fill-opacity:1"
           id="tspan6909"
           y="-1814.8491"
           x="2410.8831"
           sodipodi:role="line">autoupdate</tspan></text>
      <g
         id="g7033"
         transform="matrix(0.42961605,-0.33128915,0.33128915,0.42961605,1546.3622,-1834.8242)"
         style="fill:#ffffff">
        <path
           style="stroke-width:0.30241111"
           inkscape:connector-curvature="0"
           d="m 371.57095,304.22889 74.19064,-96.21049 c 35.54873,-46.09963 -10.52348,-81.43626 -10.52348,-81.43626 l -15.32662,-11.8188 23.63758,-30.653262 -81.43626,10.52353 10.52348,81.436222 23.63761,-30.65323 c 0,0 6.3912,4.92842 15.32662,11.8188 13.51569,10.4223 3.50782,27.1454 3.50782,27.1454 l -74.19063,96.2105 c -13.22755,-1.72695 -26.93768,3.23841 -35.68635,14.5837 -13.04223,16.91317 -9.89752,41.24863 7.01564,54.29084 16.91318,13.04223 41.24862,9.89752 54.29085,-7.01565 8.72559,-11.31537 10.06579,-25.86726 5.0331,-38.2213 z m -47.50515,29.91033 c -8.45647,-6.52102 -10.04048,-18.67387 -3.50782,-27.14542 6.52101,-8.45647 18.68896,-10.02885 27.14541,-3.50783 8.47156,6.53266 10.02885,18.68896 3.50784,27.14543 -6.53265,8.47155 -18.67388,10.04048 -27.14543,3.50782 z M 262.65575,65.137723 188.47084,161.34079 c -35.54873,46.09959 10.52348,81.43624 10.52348,81.43624 l 15.32662,11.81879 -23.63759,30.65326 81.43626,-10.52349 -10.52349,-81.43626 -23.63759,30.65325 c 0,0 -6.39121,-4.92844 -15.32663,-11.8188 -13.51568,-10.42233 -3.50782,-27.14542 -3.50782,-27.14542 L 293.309,88.775324 c 13.2407,1.725246 26.94339,-3.24586 35.69207,-14.591171 13.04796,-16.920619 9.90493,-41.242857 -7.01566,-54.290862 -16.92059,-13.0479217 -41.24289,-9.9048776 -54.29084,7.015659 -8.73132,11.322843 -10.07321,25.861562 -5.03882,38.228773 z m 23.37707,1.37896 c -8.45646,-6.521037 -10.04622,-18.666495 -3.50783,-27.145389 6.52102,-8.45651 18.68895,-10.028909 27.14543,-3.507872 8.47897,6.538411 10.02885,18.688964 3.50782,27.14539 -6.53837,8.478977 -18.66645,10.046281 -27.14542,3.507871 z"
           id="path7159" />
      </g>
    </g>
    <text
       xml:space="preserve"
       style="font-style:normal;font-variant:normal;font-weight:normal;font-stretch:normal;line-height:0%;font-family:Kefa;-inkscape-font-specification:Kefa;text-align:center;letter-spacing:0px;word-spacing:0px;writing-mode:lr-tb;text-anchor:middle;fill:#000000;fill-opacity:1;stroke:none"
       x="441.80441"
       y="-22.309101"
       id="text3698"><tspan
         style="font-size:72px;line-height:1.25"
         sodipodi:role="line"
         x="441.80441"
         y="-22.309101"
         id="tspan3706">External services</tspan></text>
    <g
       id="g13860"
       transform="matrix(0.85690905,0,0,0.85690905,51.236581,1279.6088)">
      <g
         style="fill:#326de5;fill-opacity:1;fill-rule:evenodd;stroke:none;stroke-width:1"
         transform="matrix(27.954247,0,0,27.954247,-5.3351862,-2322.9362)"
         id="Page-1">
        <g
           style="fill:#326de5;fill-opacity:1;fill-rule:evenodd"
           id="icon-132-cloud">
          <path
             style="fill:#326de5;fill-opacity:1;fill-rule:evenodd"
             inkscape:connector-curvature="0"
             d="M 26.882863,15.36551 C 28.713291,16.108508 30,17.903581 30,20 c 0,2.755805 -2.238325,5 -4.99944,5 H 7.9994399 C 5.2324942,25 3,22.761424 3,20 3,17.949131 4.2396588,16.181608 6.0118966,15.411539 v 0 C 6.0040021,15.275367 6,15.138151 6,15 6,11.134007 9.1340066,8 13,8 15.612757,8 17.891182,9.4314488 19.093808,11.552882 19.820616,11.198716 20.637102,11 21.5,11 c 2.648655,0 4.860022,1.872249 5.382863,4.36551 z"
             id="cloud" />
        </g>
      </g>
      <path
         style="fill:#ffffff;fill-opacity:1;stroke-width:0.28224781"
         inkscape:connector-curvature="0"
         d="m 333.90975,-1908.7546 v 32.0953 c 0,0 0.60555,16.0476 20.33341,16.0476 19.72784,0 183.35775,0 203.33375,0 19.97594,0 20.33333,-16.0476 20.33333,-16.0476 v -32.0953 c 0,0 -0.15881,-16.0477 -20.33333,-16.0477 -20.17458,0 -186.96156,0 -203.33375,0 -20.62126,0 -20.33341,16.0477 -20.33341,16.0477 z m 0,80.2382 v 32.0954 c 0,0 0.60555,16.0476 20.33341,16.0476 19.72784,0 183.35775,0 203.33375,0 19.97594,0 20.33333,-16.0476 20.33333,-16.0476 v -32.0954 c 0,0 -0.15881,-16.0477 -20.33333,-16.0477 -20.17458,0 -186.96156,0 -203.33375,0 -20.62126,0 -20.33341,16.0477 -20.33341,16.0477 z m 0,80.2383 v 32.0953 c 0,0 0.60555,16.0477 20.33341,16.0477 19.72784,0 183.35775,0 203.33375,0 19.97594,0 20.33333,-16.0477 20.33333,-16.0477 v -32.0953 c 0,0 -0.15881,-16.0476 -20.33333,-16.0476 -20.17458,0 -186.96156,0 -203.33375,0 -20.62126,0 -20.33341,16.0476 -20.33341,16.0476 z m 20.33341,-48.1429 v -32.0954 h 20.33339 v 32.0954 z m 40.66671,0 v -32.0954 h 20.3334 v 32.0954 z m 40.6668,0 v -32.0954 H 455.91 v 32.0954 z m 40.66673,0 v -32.0954 h 20.3334 v 32.0954 z m 61.00011,-16.0477 v -16.0477 h 20.3334 v 16.0477 z m -183.00035,-64.1906 v -32.0953 h 20.33339 v 32.0953 z m 40.66671,0 v -32.0953 h 20.3334 v 32.0953 z m 40.6668,0 v -32.0953 H 455.91 v 32.0953 z m 40.66673,0 v -32.0953 h 20.3334 v 32.0953 z m 61.00011,-16.0477 v -16.0476 h 20.3334 v 16.0476 z m -183.00035,176.5242 v -32.0953 h 20.33339 v 32.0953 z m 40.66671,0 v -32.0953 h 20.3334 v 32.0953 z m 40.6668,0 v -32.0953 H 455.91 v 32.0953 z m 40.66673,0 v -32.0953 h 20.3334 v 32.0953 z m 61.00011,-16.0476 v -16.0477 h 20.3334 v 16.0477 z"
         id="path13824" />
    </g>
    <text
       id="text13877"
       y="-847.08234"
       x="516.0061"
       style="font-style:normal;font-variant:normal;font-weight:normal;font-stretch:normal;line-height:0%;font-family:Kefa;-inkscape-font-specification:Kefa;text-align:center;letter-spacing:0px;word-spacing:0px;writing-mode:lr-tb;text-anchor:middle;fill:#004000;fill-opacity:1;stroke:none"
       xml:space="preserve"><tspan
         id="tspan13875"
         y="-847.08234"
         x="516.0061"
         sodipodi:role="line"
         style="font-size:72px;line-height:1.25">Trigger configured</tspan><tspan
         y="-757.08234"
         x="516.0061"
         sodipodi:role="line"
         style="font-size:72px;line-height:1.25"
         id="tspan13898">workflows</tspan></text>
    <text
       xml:space="preserve"
       style="font-style:normal;font-variant:normal;font-weight:normal;font-stretch:normal;line-height:0%;font-family:Kefa;-inkscape-font-specification:Kefa;text-align:center;letter-spacing:0px;word-spacing:0px;writing-mode:lr-tb;text-anchor:middle;fill:#004000;fill-opacity:1;stroke:none"
       x="1451.6525"
       y="-545.12982"
       id="text13914"><tspan
         id="tspan13912"
         sodipodi:role="line"
         x="1451.6525"
         y="-545.12982"
         style="font-size:72px;line-height:1.25">Return workflow</tspan><tspan
         sodipodi:role="line"
         x="1451.6525"
         y="-455.12982"
         style="font-size:72px;line-height:1.25"
         id="tspan13921">results and errors</tspan></text>
  </g>
</svg>
